<svg viewBox="0 0 1920 960">
<path class="p1" d="M338.8,630.5c42.1-32.1,124.4-103.1,159.7-205c0,0,27.8-80.3,3.1-134.6c-2.6-5.8-9.5-21.1-20.3-21.9
	c-12.1-1-22.5,16.6-26.6,23.5c-36.8,62.1-54.5,356.6-18.8,358.4c21.4,1.1,39.4-104.5,86.1-111.1c3.6-0.5,8.5-1.2,12.5,1.6
	c17.4,11.9-14.1,63,7.8,93.9c7.3,10.3,17.6,14.3,25,17.2c45.4,17.8,103.8-16.4,128.3-57.9c6.4-10.8,17.5-29.5,9.4-45.4
	c-6-11.9-21.2-19-34.4-17.2c-21.9,3-30.9,28.9-32.9,34.4c-11.1,31.8,3.6,75.2,31.3,87.7c34.3,15.4,77.2-21.8,97-39.1
	c110.5-96.1,140.8-296.2,81.4-336.5c-3.4-2.3-14.9-10.1-26.6-6.3c-65.4,21.4-44.7,374.5,21.9,386.6c64,11.6,212.5-283.9,139.3-374.1
	c-4-5-12.3-15.2-21.9-14.1c-51.1,6-74.9,362.4,4.7,389.7c53.5,18.4,158.5-109.8,148.7-123.7c-3.8-5.4-27.9,2.6-43.8,15.7
	c-4.8,3.9-22.3,18.2-25,42.3c-2.5,22.4,7.8,52.3,32.9,61c29.7,10.4,56.5-17.2,59.5-20.3c22.9-24.3,18.5-56.7,17.2-64.2
	c-1.9-11.4-3.3-29.6-17.2-37.6c-6.2-3.6-16.2-5.9-23.5-1.6c-13.5,8-13.4,36.6-3.1,54.8c16.1,28.5,60.6,37.7,83,25
	c4.7-2.7,68.1-43.4,69.2-46.8c3.3-9.9-10.5-15-14.9-37.1c-1.1-5.6-1.2-12.4-1.3-26c-0.1-19,1.5-19,0-24.9
	c-3.3-13.3-11.6-13.3-20.5-29.3c-7.8-14-2.4-15.8-10.3-32.2c-9.2-19.3-20-24.3-17.6-33.7c1.5-5.9,7.4-10.6,13.2-11.7
	c7-1.3,14.7,2.4,36.6,24.9c24.8,25.5,26.6,32.7,33.7,32.2c15-0.9,26.7-33.9,29.3-52.8c0.7-5.1,0.9-10.4,0.9-10.7
	c0.5-13.6-1.8-20.9-3.9-34.8c-0.8-5.3-2.5-17.3-2.8-32.1c-0.4-15.4,0.9-23.9,1.9-29.3c1.4-7.1,3.3-13,5.8-18.7
	c4-8.8,6.9-15.4,12.1-16.5c6.8-1.5,15.4,7.3,19.8,15.4c10.5,19.3-3.3,33.4-1.1,68c1.1,16.8,6,40.1,13.2,40.7
	c6.6,0.5,13.4-18.3,25.2-50.8c7.4-20.4,16-46.9,33-62.3c4.6-4.2,9.8-7.4,15.4-6.6c6,0.9,10.5,6.2,12.5,11c3.5,8.6-0.5,17.4-6.6,30
	c-9.3,19.4-14,29.1-19.1,39.2c-15.7,31.2-17.7,62-15.4,62.6c2.7,0.8,22-38,33-62.3c1.8-3.9,8.1-17.9,22-25.6
	c8.7-4.8,13.4-3.4,14.7-2.9c6.4,2.3,9.5,10.1,10.3,15.4c1.9,13.3-10,19.1-23.8,41.4c-9,14.6-12.7,26.5-20.1,50.2
	c-4.1,13.3-8.1,26.2-5.1,27.8c3.2,1.7,12.7-10.2,23.1-23.1c19.2-23.9,24.8-36.3,40.7-42.9c9.1-3.8,13.4-2.3,15.4-1.1
	c6.1,3.6,6.5,13.2,6.6,16.5c1,26-44.1,48.6-73.6,92.3c-2.8,4.1-13.6,34.3-35.2,94.5c-19.2,53.7-22.7,65-22.3,82.8
	c0.3,10.2,1.5,58.1,29.7,77.3c59.8,40.6,185.7-85,201.8-121.7c2.3-5.1,8.4-19.2,2.7-31.5c-2.6-5.6-8.5-12.6-14.5-12.1
	c-7.5,0.6-9.4,12.3-15.9,12.1c-6.3-0.2-7.6-11.1-14.7-11.8c-6.8-0.7-12.8,8.9-13.7,10.4c-6.6,10.6-5,23.4-3.2,29.2
	c8.3,26.1,60.5,31.7,70.6,32.8c73.8,7.9,180.7-35,249.9-124.5c15-19.4,28.3-38,40-55.4"/>
</svg>
