<svg viewBox="0 0 1920 960">
<path class="p10" d="M0,499.4c43.7-70.2,61.7-151.2,65.2-168c31-147.7-30.3-182.2,0-244.2c95-194.1,695.8,146.6,1264.7-12.5
	c71.1-19.9,277.2-85.5,432,12.5c26,16.4,67.7,42.8,93.9,93.9c52.4,101.9-16.1,186.5-31.3,425.7c-7.8,123.5,9.2,119.9-6.3,148.7
	c-73,135.6-343.8,13.6-871.8,61C819,828.1,669.3,850,456.5,822.9c-207.2-26.5-266.1-73-298.2-111.9c-62.5-76-62.3-171.1-61.8-335.7
	c0.4-130.9,0.5-196.3,43.8-237.9c66.4-63.7,171.6-22.8,325.6-12.5C684.2,139.3,696.5,72,973,43.4c293.1-30.4,555.8-57.6,720,93.9
	c70.7,65.3,117.9,158.8,226.9,217.6"/>
</svg>
