<svg viewBox="0 0 1920 960">
<path class="p11" d="M0,354.6c18.4,9.9,38.7,18.9,61.1,26.6c18.7,6.4,65.5,33.2,123.7,23.5c9.7-1.6,16.3-3.6,25.8-6.5
	c80.8-24.7,123.4-71.5,171.4-70.2c5.2,0.1,14.1,0.5,15.7,4.7c2.4,6.5-12.8,22-28.2,23.5c-21,2-45.6-21.8-47.7-44.6
	c-3.6-37.7,54-68.8,84.5-79.8c13.9-5.1,76.3-27.7,114.3,6.3c2.4,2.2,25.9,23.8,21.9,49.3c-6.7,42.7-85.5,65-102.5,47
	c-15.4-16.3,20-65.5,24.1-68.9c0.6-0.5,2.3-2,4-1.5c0,0,1.7,0.4,2.8,3.2c1.9,4.7,20.4,111.5-41.9,140.9c-3.3,1.6-28.4,12.9-55,3.7
	c-7.7-2.6-18-6.2-21.7-15c-7.7-18.3,18.9-45.9,36.4-58.8c6-4.4,40.7-30,83.4-20c8.3,2,37.7,8.9,47,30.5c4.7,11,5.6,29.4,6,37.2
	c0.7,13-0.3,23.6,5.9,27.3c3.5,2.1,7.7,1.1,10.2,0.5c5.5-1.4,70.5-18.4,71.4-43.7c0-1.3,0.2-5.7-2.7-8.5c-4-3.8-11.7-2.6-16.4-0.2
	c-9.5,4.8-12.8,17.3-12.5,26c0.3,10.9,6.3,24.2,17.3,28c4.6,1.6,9.5,1.3,21.8-3.3c0,0,44-16.4,60.5-47.3c0.6-1.2,2.3-4.3,1.1-6
	c-0.7-1-2.1-1.1-2.8-1.1c-18.1-1-29,12.5-29,12.5c-7.5,9.4-9.1,21.6-6.3,31.4c1.3,4.4,3.2,11.4,8.3,13.2
	c9.2,3.2,22.4-12.5,30.2-22.1c11.1-13.6,27.3-33.9,34.9-67.5c0,0,9.9-44.1-6.8-74.2c-0.8-1.5-3.1-5.6-6.4-5.8
	c-4.4-0.2-7.9,7-9.2,9.7c-8.7,17.8-20.7,79.1-0.2,139.3c2.4,7.2,6.6,17.9,16.2,21.8c7.8,3.1,15.7,0.3,23.6-2.5
	c15.7-5.6,24.8-15.9,28.1-20.1c4.7-5.9,14.4-18.2,10.5-28.2c-0.3-0.8-2.6-6.5-7.9-8c-4.5-1.3-8.6,1.2-9.6,1.8
	c-10.8,6.6-10,25.2-9.8,29.3c0.2,4.7,0.7,12.2,5.7,19.6c1.5,2.1,4.7,6.9,10,9.2c2,0.8,9.9,3.8,28.5-7.1c0,0,26.4-15.5,46.8-58.1
	c1-2.2,3.2-7,1.9-12.4c-0.8-3.2-3.2-8.4-7.6-9.2c-5.2-0.9-10.8,5.1-11.7,10.7c-0.9,5.7,3.3,10.3,7.9,15.6c6.3,7.2,8.6,6.1,13.6,11.8
	c1.9,2.2,9.6,11.5,9.2,24.3c-0.1,2.3-0.4,11.4-6.7,17.7c-2.1,2.1-4.2,3.1-4.7,3.4c-1.3,0.6-5,2.3-13.2,1.2c-7.4-1-15.9-3.8-15.6-5.1
	c0.5-2.3,30.3,11.1,50.1-0.8c23.7-14.2,24.4-59.3,23.5-59.5c-0.8-0.2-16.1,33.7-2.3,56.4c1.3,2.1,5.6,9.1,13.3,12.5
	c30.7,13.8,90.3-39,83.7-54c-3.7-8.5-30.8-10.5-43.9,3.3c-9.9,10.4-10.9,29.1-2.4,41.3c2.6,3.7,6.3,9,11.8,9.4
	c18.2,1.5,34.6-53,38.4-51.7c2.8,1-13.1,30.3-12.9,71.3c0.2,58.3,2.6,76.8,2.6,76.8c0.4,3.3,1.7,12.4-3.1,20.9
	c-5.7,10-17.6,15.4-26.4,14.4c-3.9-0.4-5.4-1.9-6-2.5c-2.9-3.1-2-8.3-1.2-11.5c5.3-23.1,14.1-34.6,14.1-34.6
	c4.4-5.8-8.1,9.5,47.2-94.4c24.1-45.2,30-54.8,33.4-53.7c8.3,2.6-6.5,63,2.3,65.7c9.3,2.9,33-60.5,46.2-57.1
	c11.2,2.9,5.2,52.1,16,54.4c9.7,2,17.4-36.9,37.2-38c15.1-0.8,33.5,20.4,42.3,35.8c0.2,0.3,0.4,0.7,0.7,1.3c0,0,16.5,30.1,11.9,68.3
	c-0.4,3.3-1,6.5-1,6.5c-0.3,1.9-1.6,8.7-4.4,16.4c-4,11.1-6.9,12.6-11.2,22.9c-3.1,7.3-4.4,12.9-5.9,19.4c-8,35.1,1.4,60-12.1,90.8
	c-8.2,18.8-18.6,25.3-21.7,27c-10.2,5.9-20.2,6.1-26.3,6.2c0,0-24.1,0.4-41.9-15.6c-5-4.4-6.4-7.4-6.2-10.1
	c0.4-5.5,7.7-9.2,12.2-11.2c30.3-13.5,93.6-23.2,93.6-23.2c42.3-6.5,63.4-9.8,78.3-27.5c11.5-13.7,18.9-35.4,13-56
	c-5.8-20.4-22.2-31.1-29.3-35.8c-16.4-10.8-32.2-12.5-44.8-13.7c-12.9-1.2-49.6-4.3-87.4,17.8c-15.6,9.1-55.6,32.5-54.2,66.9
	c0.7,16.5,10.9,35.1,26.6,41.5c18.7,7.6,32.4-7.2,56.4-12.9c66.3-15.9,122.8,58.9,144.8,40.3c11.7-9.9,6.9-40.6,0.7-42.3
	c-5.1-1.3-16.5,15.6-12.5,21.9c5,7.9,29.7-7.3,41.5,2.9c13.8,11.9-4.6,46.2,3.9,51.4c12.1,7.3,64.2-51.9,64.2-51.9
	c0,0-26,19-23.2,37.6c1.7,11.5,14.2,21.1,25.8,21.7c20.8,1,36.8-27.3,32.3-45.7c-2.2-9-10-18.6-15.7-17.5c-4.7,1-7.3,9.2-7.3,15.4
	c0.1,16,18.4,31.9,26.9,28.7c13.6-5.2,1.5-59.3,15.4-63.3c5.3-1.5,10.6,5.2,25.5,4.9c3.7-0.1,7.2-0.6,9.3-3.1
	c0.7-0.8,2.2-3.1,1-10.3c0,0-2.8-15.9-17.7-26.3c-1.5-1-3.5-2.2-5.2-1.5c-1.8,0.7-2.4,3.2-2.7,4.7c-1.4,6.8-2.1,10.2,0.1,17.2
	c5.2,16.9-1.3,50.9,8.8,155.1c0,0,3.5,35.7-11.5,50.9c-1.8,1.9-3.8,3.2-4.1,3.4c-10.2,6.8-26.2,7-32.9,1.2
	c-13.5-12,6.1-54.8,16.3-73c10.2-18.2,18.4-32.9,35.7-44.8c1.5-1,27.3-18.7,56.4-36.4c1.5-0.9,5.8-3.5,7.8-8.4
	c3.8-9.3-3.4-19.2-3.7-19.7c-1.3-1.7-6.8-9.2-15-9c-8.5,0.1-13.9,8.2-16.3,11.8c-5.6,8.4-7.6,19.9-4.3,30.5
	c3.5,11.2,12.9,21.1,24.1,24.3c32.2,9.3,68.1-39.2,72.3-44.8c4.4-5.9,6.7-9,6.1-9.6c-1.2-1.2-16.9,8-23.7,24.6
	c-2,4.9-6.7,16.4-1.9,24.5c6.9,11.7,30.5,11.5,45.7,7.2c43.5-12.4,62.3-71,61.1-105.2c-0.3-8.3-1.1-23.9-11.9-31.7
	c-3.3-2.4-8-4.4-18.4-4.6c-28.3-0.5-58.1,12.8-56.8,19.9c0.3,1.4,1.9,3.3,19.7,6.2c23.2,3.7,55.5,6.3,106.3-2
	c16.7-2.7,19.5-4,19.6-5.6c0.5-4.9-24.4-14-49-12c-9.6,0.8-24.6,2-35.5,13.3c-1.8,1.9-8.1,8.7-12,28.3c0,0-9.6,47.8,16.2,86
	c7.1,10.5,12.5,11.4,15,11.4c4.1,0,7.1-2.5,8.4-3.5c20.1-16.7,30.1-25.1,34.2-30.4c0,0,17.1-22.3,42.3-40.2
	c9.2-6.6,30.1-18.4,82.8-14.7c56,3.8,80.5,20.4,111.6,34.3"/>
</svg>
