<svg viewBox="0 0 1920 960">
<path class="p12" d="M0,615.2c18.7,8.3,39.8,15.6,71.5,18.6c42,3.9,102.8,0.2,113.5-6.3c0.8-0.5,6.1-3.9,12.1-2.7
	c3.1,0.6,7.3,2.7,7.4,5.5c0.1,2.7-3.7,5.1-6.7,5.9c-4.6,1.2-8.9-0.9-12.9-3.1c-15.7-8.5-23.5-12.8-30.5-20.3
	c-3.9-4.2-7.2-7.8-9.8-13.7c-4.3-9.6-5.5-22.4-1.2-24.6c1.6-0.8,2.5,0.6,5.1,0.4c6.6-0.6,8.4-10.3,16-18.4c2.6-2.8,7.9-8.3,15.6-9.8
	c11.4-2.1,24.8,5.4,32.1,12.5c2,1.9,3.2,3.5,5.9,4.7c6.1,2.8,14.1,1.4,20-2.3c4.6-2.9,5.8-6,7-5.5c2,0.9,0.8,10.5-3.1,19.2
	c-4.7,10.4-11.8,15.9-9.8,19.2c0.4,0.7,0.9,0.7,7.4,6.3l0,0c0,0,3.5,3,10.2,2.3c16.1-1.6,33.3-33.6,33.3-33.6
	c14.3-26.7,9.2-32.5,20-49.7c12.6-20.1,30.6-29.7,41.5-35.6c8.8-4.7,36-18.9,71.6-14.9c16.1,1.8,36.3,4.1,50.1,20.7
	c10.1,12.3,14.5,29.6,11.7,44.6c-5.1,27.6-35.2,52.9-40.7,57.5c-1.4,1.2-3.7,3-5.9,6.3c-6.3,9.3-5.5,20.9-4.7,30.9
	c0.8,9.5,1.9,8,1.6,11.7c-1.1,12.6-12.9,16.8-30.9,36c-12,12.7-9,13.2-14.5,16.8c-23.8,15.7-64.4-4.6-63.8-7.4
	c0.3-1.5,11.7,3.4,27-1.6c13.5-4.4,29-16.2,29.7-29.7c0.6-10.9-8.7-16-16.4-27c-17.7-25.3-17.5-67.7,0-93.5
	c20.4-30.1,62.8-35.2,82.9-37.6c29.8-3.5,38.8,4,55.9-5.5c28-15.6,34.4-52.7,35.2-57.9c4.7-29.7-9.3-37.5-7.8-67.3
	c1.3-26.4,14-58.3,36-74.3c41-30,112.5-3.6,154.9,26.6c82.6,58.8,75.4,146.5,116.6,151C893.8,476,939,289,974.8,297.3
	c30.4,7.1,16.6,146.5-12.5,187.8c-2.6,3.7-8.6,12.2-13.3,11c-8.5-2.2-7.5-35-4.7-55.6c4-29.7,14-50.4,25-72.8
	c13-26.4,30.2-61.2,44.6-58.7c5.7,1,8.9,7.5,11,11.7c8.9,18.2-0.4,44-13.3,47.7c-10.3,3-22-8.5-21.9-8.6c0.1-0.2,13,12.7,32.9,14.9
	c30.8,3.4,52.8-21.6,56.3-25.8c4.3-5.1,17-20.2,11.7-30.5c-2.6-5-9.4-8.7-15.6-7.8c-6.9,1-10.7,7.2-12.5,10.2
	c-7.2,11.8-3.2,25.3-2.3,28.2c0.5,1.6,6.4,20.7,19.6,24.3c21.7,5.9,47.5-34.4,54-44.6c7.2-11.3,27.3-43.7,20.3-82.2
	c-1.8-10.1-3.7-20.1-11.7-25.8c-21.6-15.2-70.2,12.4-68.1,21.9c3.5,15.4,144.8-0.4,144.8-0.8c0-0.2-54.5-9.8-79.8,18
	c-26.5,29-19.3,96.9,13.3,111.9c34.2,15.7,82.3-32.8,87.6-38.3c14.4-14.9,30.8-38.8,27.4-42.3c-1.9-1.9-10.7,1.6-13.3,7.8
	c-1.8,4.1-0.3,8.4,8.6,26.6c8,16.3,10.1,19.4,9.4,25c-0.9,6.8-5.4,13.7-11.7,16.4c-9.5,4-20.2-2.7-20.3-2.3
	c-0.2,0.4,17.4,14.2,32.9,10.2c28.8-7.4,34.3-72.1,39.9-71.2c5.5,0.9-6.7,61.8,11,69.6c8.4,3.7,20.3-6.1,29-13.3
	c24.4-20.2,31.6-48.6,36.8-68.9c1.4-5.4,3.4-14.7,3.9-26.5c0.2-6.4,0.4-13.3-1.5-22c-0.9-4.1-3.4-14.8-7.8-19.6
	c-14.9-15.9-76.1,8.7-74.3,18.8c3.1,18,208.1,3.7,208.1-0.8c0-3.5-120.2-27-151.8,21.1c-22.7,34.6,2.9,102.7,27.4,105.6
	c21.4,2.6,46.6-44.3,54-81.4c6.1-30.4,2.4-64.7-4.7-65.7c-5.9-0.9-15.2,21.4-18.8,39.9c-7.9,40.4,4.2,97.9,35.2,105.6
	c18.8,4.7,43.3-9.2,50.9-27.4c4.6-11.1,4.1-26.6-1.6-29c-5.1-2.2-14.9,6.4-18.8,15.6c-5.5,13.1-1.4,32.4,11.7,39.1
	c14.1,7.3,30.4-4,33.6-6.3c17.3-12,20-32.8,22.7-53.2c1.1-8.5,0.3-10.4-0.8-11c-3.4-1.6-14.3,8.6-12.5,14.1
	c2.8,8.3,32.4-3.1,43.8,10.2c11.9,13.9-6.7,42.6,0.8,47.7c7,4.9,28.7-16.8,43.8-29.7c67.8-58,131.7-51.4,133.8-75.1
	c2.6-29.3-94.5-44-95.2-68.3c-0.8-27.7,116.9-54.9,248.6-76.6"/>
</svg>
