<svg viewBox="0 0 1920 960">
<path class="p14" d="M0,407.7c19.4,17.5,42.8,32.8,73.5,44.8c50.7,19.9,174.3,52,288.9,4.9c0,0,169.5-69.7,188.2-53.6
	c0.9,0.8,1.8,1.6,1.8,1.6c7.1,6.9,14.1,18.6,13.9,29.4c-0.3,16-16.5,28.7-29.9,33.2c-21,7.1-46.7-2-56-18.8
	c-12.7-23,4.7-61.7,30.5-75.3c40.8-21.6,77.5,32.8,168.7,34.3c42.6,0.7,91-10.2,90.9-16.9c-0.1-6.6-46.8-20.5-77,1.4
	c-14.3,10.4-19.6,25-24.4,38.8c-17.4,50.3,7.7,74.4-11.1,107.7c-10.1,17.9-29.3,32-50.1,34.3c-35.7,4-67.8-27.6-64.5-35.2
	c5.2-12,96.5,41.3,158.4,1.1c15.8-10.2,24.6-23.3,31.3-33.2c3.4-5,39.9-60.8,17.7-115c-4.1-9.9-8-19.6-13-19.4
	c-22.4,0.8-38,196.2-18.8,200.3c11.4,2.4,32.8-64.1,45.1-60.7c10.2,2.8-3.2,48.6,14.4,59.3c24,14.6,93.8-42.5,87.3-57.3
	c-2.7-6-18-5.8-28.3-1.4c-15,6.4-25.8,24.9-21.6,41c0.5,1.8,4.4,15.9,16.6,19.1c8.1,2.1,16.5-1.4,21.6-6.4
	c10.9-10.7,7.4-29.1,10-29.4c3.4-0.3,3.8,31.6,13.6,34.3c15.8,4.4,45.6-70.6,56.5-67c9.7,3.2-4.9,64.6,3.9,67.3
	c9.4,2.9,34.9-64.7,46.8-61.5c10.5,2.9-1.8,57.9,12.7,63.4c12.9,4.9,37.6-32.2,40.2-36c40.7-61.8,27.8-127.3,16.3-146.3
	c-1.5-2.5-5.8-9.7-9.1-8.9c-4.1,1-4.3,13.7-4.4,19.1c-0.9,52.3,2.8,104.7-1.1,156.8c0,0.5-0.3,3.7,0.3,7.9c0.4,3.2,1.1,7.9,2.2,8.2
	c4.3,0.8,8.6-61.2,35.2-69.2c1-0.3,8.6-2.5,14.1,1.4c7.3,5.1,8.8,18.9,3.9,28c-8.1,14.8-30.9,11.3-32.1,19.9
	c-0.9,6.3,10.3,14.7,20.8,16.3c15.1,2.3,28.8-9.7,35.2-15.2c3.4-3,6.3-6.2,7.7-7.7c7.9-8.7,12.1-16.3,13.1-18.1
	c11.6-19.3,63.9-34.5,69.5-24.9c2.1,3.5-4.3,7-9.1,22.4c-2.4,7.6-8.4,26.7,0.8,36.6c3.5,3.8,10.1,7.1,16.3,5.8
	c20.3-4.2,21.6-54.4,26.9-54c5.5,0.4,1,54.2-5.8,135.4c-1.2,14.8-3.4,37.1-16.1,42.1c-7.1,2.8-17.3,0.2-21.9-5.3
	c-25.2-30.2,105.4-172,100-176.4c-2.1-1.7-25.3,15.5-23.8,34.1c0.9,11.4,11.2,23.7,24.9,26.6c12.9,2.7,22.9-4.1,24.9-5.5
	c14.9-10.6,19.2-33.1,10.8-47.6c-4.4-7.7-13.9-15.6-19.9-13.3c-7.5,2.9-10.3,21.9-2.5,33.2c9.3,13.5,32.7,14.5,45.7,5.8
	c16.1-10.7,18.3-37.1,17.5-37.4c-1-0.3-20.6,35.6-8.3,52.6c5.3,7.3,16.6,11.4,24.9,8.3c21.2-7.7,22.6-60.7,21.6-60.9
	c-0.7-0.1-11,25.9-1.1,47.4c2.1,4.5,6.3,13.8,14.4,15.8c18.3,4.6,43.6-30.8,54.8-59c6.6-16.5,11.2-28.1,9.1-43.2
	c-5.1-36.9-43.6-47.3-39.9-74.8c1.4-10.4,8.6-21.6,16.6-22.7c10.4-1.5,15.7,14.6,27.7,13.8c12.4-0.8,15-18.4,26-18.3
	c9.5,0.1,18.3,13.1,20.5,24.4c3.3,16.9-8.3,30.7-12.7,36c-10.1,12-22.2,16.7-31,19.9c0,0-26.4,9.8-55.4,5
	c-59.7-9.8-91.3-79-93.1-83.1"/>
</svg>
