<svg viewBox="0 0 1920 960">
<path class="p2" d="M0,412.9C47.6,342.2,68.5,292,68.5,292c6.5-15.5,19.4-48.7,50.1-60.5c21.2-8.1,50.5-6,67.3,11
	c4.5,4.5,12.1,14.2,15.6,57.9c4.2,52-3,83.4,1.6,84.5c5,1.2,16.1-36.5,42.3-90.8c17.9-37.2,35.8-67.6,40.7-65.7
	c6.6,2.6-22.9,60.4-1.6,120.5c8.8,24.7,18.6,28.7,21.9,29.7c20.6,6.4,48.5-21.2,62.6-43.8c36.9-59,14.7-139.4,12.5-139.3
	c-3.1,0.2-4.1,162.6,23.5,167.4c8.8,1.5,23.9-12.3,23.5-23.5c-0.2-5.1-3.7-11.2-8.6-12.1c-6.3-1.1-11.9,7.1-12.9,8.6
	c-7.1,10.5-6.6,27.6,2.7,36.4c7.1,6.6,17,6.3,18.4,6.3c42.4-1.8,72-113.2,59.9-147.1c-1-2.7-3.5-9.7-7.8-10.2
	c-7.5-0.8-15.4,18.5-17.6,23.9c-19.1,47-3.8,128.7,21.9,132.2c9.7,1.3,21-8.5,24.3-18.8c3.7-11.7-1.9-27.6-11.3-30.1
	c-10.6-2.9-24.7,11.3-26.6,25.8c-0.2,1.7-1.7,12.5,4.7,19.2c11.3,11.9,38.8,2.4,54.8-2.7c64.2-20.7,132.9-42.9,192.5-45.9
	c10.1-0.5,32.4-1.1,51.6-15.9c5.5-4.3,21.7-16.7,22.7-37.2c1-19.4-12.3-32.7-14.5-34.9c-8.4-8.2-18.3-11.5-27-13.3
	c-41.2-8.7-134.4-0.5-152,47.9c-1.3,3.7-4.5,12.8-1.2,22.5c6.5,19,34.7,29.9,56.3,27.5c46.6-5.2,78.1-74.4,76.7-75.5
	c-0.8-0.6-19.6,15.1-27,38.3c-8.8,27.5,6,40.8-2.7,63c-10.7,26.9-44,36-43.4,37.2c1.2,2.4,137.8-66.4,143.6-56.7
	c1,1.7-3,4.4-6.3,14.9c-2.2,7.1-6.2,19.9,0,27.8c3.8,4.9,11.9,8.3,18.4,6.3c17.4-5.5,20.2-48.9,20-48.9c-0.2,0-12.2,31.3,0,44.2
	c4.7,4.9,12.2,6.4,17.2,5.9c40-4,73.5-144,48.1-157.7c-3-1.6-6.1-1-7-0.8c-30.1,7.5-32.6,149.2-1.2,159.2c8,2.6,19.3-3.1,25.4-9.8
	c0.7-0.8,11.6-13,6.7-27.4c-3-8.7-11.2-16.6-19.6-16.8c-19.2-0.6-40.1,39-30.5,52.8c8.9,12.9,45.6,5,69.2-10.2
	c18-11.6,27.2-26.5,32.5-35.2c26.8-44.6,27.8-105.9,11.7-112.3c-3.7-1.4-7.5,0.3-8.6,0.8c-32.8,15.2-21.1,153.5,7.4,158.8
	c21.7,4.1,60.8-67.4,48.5-81.8c-2.2-2.6-7.7-5.2-10.2-3.5c-3.5,2.4-0.1,12.9,1.2,17.2c10,34.4-6.6,64.6,1.2,68.5
	c12.2,6.1,64.3-62.3,59.9-66.5c-2.4-2.2-23.6,11.2-22.7,23.9c0.9,12.3,22.1,16.6,21.1,25c-1.2,9.9-31.2,11.7-30.9,14.9
	c0.3,3.2,31.9,10.7,54.8-5.1c8.1-5.6,14-13.3,23.9-39.1c13-33.8,37-96.5,16-111.5c-1.4-1-4.9-3.5-9-2.7c-28.4,5.5-19,159.6-11.7,160
	c2.8,0.2,3.4-21.9,21.9-39.5c2.2-2.1,10.7-10.2,15.3-7.8c3.6,1.9,2,8.9,3.9,27c1.2,11.1,1.8,16.7,4.3,18.8c8,6.5,26.2-4.7,42.6-14.9
	c13.2-8.1,16.5-12.7,17.6-17.6c1.4-6.1-0.1-14.7-5.5-17.2c-6-2.8-14.4,3-18.4,8.6c-7.7,11-4.7,30.6,7.4,38.7
	c9.9,6.6,23.1,3.8,31.3-0.8c26.6-14.8,29.1-64.3,23.1-66.5c-3.6-1.3-14.9,12.9-11.7,19.6c5.9,12.5,61-3.2,61.8,0.4
	c0,0,0.3,1.4-31.3,13.3c-372.7,162.6-486.1,200.5-491.8,189c-1.6-3.2,3.8-12.9,9.4-18.8c14.6-15.5,39.4-14.5,45.8-14.1
	c28.2,2,45.5,19.3,62.2,14.1c0,0,1.1-0.3,14.9-4.9c10.4-8.1,12.9-9.5,13.2-9.2c0.3,0.4-3.1,3.3-6.3,8.6c0,0-2.7,4.5-4.4,10.7
	c-3.9,13.8-0.2,60-6.8,83.7c-6.7,24.3-30,45.9-54.3,50.1c-31.1,5.4-68.3-16.9-66.8-31.8c3.8-37.8,258.2-48.8,258.2-48.5
	c0,0.1-23.3,7-33.4-3.7c-11.7-12.3-4-45.9,16.7-62.1c10.9-8.5,25.7-12.5,27.6-9.4c2.7,4.2-21.4,15.9-37.6,41.7
	c-25.6,40.7-22.7,102.2,1.6,115.8c2.8,1.5,5.1,2.1,7.3,2.6c22.1,5.2,44.5-12,55.8-27.6c3.4-4.7,14.1-19.6,8.9-27.1
	c-3.8-5.4-14.3-4.6-20.3-2.6c-10.8,3.6-20.1,15-19.3,28.2c0.6,10.1,7.1,22.2,14.6,22.4c14.4,0.5,27.2-42.4,30.3-41.2
	c2.3,0.9-8.1,23.3,0.5,31.8c4.4,4.3,11.7,3.2,18.8,2.1c17.7-2.7,42.4-14.3,43.3-30.8c0.3-4.8-1.4-10.9-5.7-13.6
	c-6.9-4.2-18.2,1.5-24,8.3c-9.1,10.8-9.3,30.5,1.6,39.6c13.3,11.1,34.8-0.5,37.6-2.1c24-13.4,32.8-45.9,31.8-46.4
	c-1-0.5-20,23.5-13,38.1c3.1,6.5,11.5,11.4,18.3,9.9c16.3-3.7,21.1-44.7,22.4-44.3c1,0.2-8.4,23.7,2.1,37c1,1.2,7,8.6,14.1,7.8
	c17.5-2,20-51.2,34.9-51.6c3.9-0.1,7,3.2,8.3,4.7c12.7,14-2.5,46.8-0.5,47.5c2,0.7,11.2-35.2,35.5-45.9c5.1-2.2,7.4-1.9,8.9-1
	c10.1,5.7-5.6,42.9,2.1,46.9c4.5,2.3,9.8-10.3,29.3-22.4c11.6-7.2,33.6-17.6,45.8-27.6c3.6-2.9,6.7-6.1,5.9-8.1
	c-0.4-1.1-1.9-1.6-2.5-1.7c-1.9-0.5-18.5-5-22.8-7.1c-7.7-3.7-11.9-17.4-9.9-26.8c5.2-24.7,56.6-40.8,76.9-47.2
	c5.5-1.7,21.4-6.5,31.3-20.3c3.4-4.8,6.7-11.5,5.5-12.5c-1.9-1.5-14,10.1-18.8,15.6c-22.9,26.7-4.6,64.5-6.3,140.1
	c-1.1,48-9.2,62.7-18,72c-12.7,13.4-35.1,24.1-49.3,16.4c-17.9-9.7-18.4-46.3-7.8-70.4c23.9-54.5,112-62.6,118.2-50.9
	c2.6,5-10.1,12.9-8.6,29.7c0.1,1.1,1.6,16.5,11,19.6c6.9,2.2,14.2-3.5,15.6-4.7c17.1-13.5,14.7-43.9,15.6-43.8
	c1.1,0.1-4.6,42.7,4.7,46.2c11.2,4.1,37.5-50,46.9-46.2c8.3,3.4-2.8,49,1.6,50.1c3,0.7,8.3-20.2,28.2-39.1c4.9-4.7,11-10.3,14.9-8.6
	c8,3.5-5.4,32.5,4.7,41.5c15.1,13.4,78-22.8,74.3-35.2c-1.7-5.8-18.4-8.5-28.5-1.8c-12.2,8.1-12.1,28.3-7,36.3
	c0.7,1.1,2.4,3.8,5.2,4.1c2.9,0.4,5.4-2,7.8-4.5c10.9-11.4,13-19.1,19.8-20.4c0.7-0.1,3.2-0.6,4.4,0.7c1.9,2-0.1,6.8-1.4,10
	c-2.6,6.8-3.4,14.2-5.7,21.2c-3.1,9.2-1.2,12.2-0.4,51.9c0.3,12.4,0.4,18.7,0,23.2c-0.7,8.7-2.9,38-13.8,40.5c-4,0.9-8.5-1.9-11-4.7
	c-15.2-16.9,10.9-68.1,32.1-97c8.5-11.6,26.7-36,59.5-55.6c39-23.3,80.8-28.9,116.8-28.5"/>
</svg>
