<svg viewBox="0 0 1920 960">
<path class="p3" d="M0,579.8c22.6,0.2,42.9,2.9,58.9,5.1c87.1,11.9,124.7,45.5,144.8,25.7c17.4-17.2,10.7-63.7-9.1-74.2
	c-8-4.3-21.1-4.3-27,2.6c-5.4,6.2-4.1,17-1.2,23c13.4,27.9,102.8,38,125.5-1.3c17.8-30.9-8.7-87-32.2-90.4c-6.5-0.9-16.1,1.6-19,7.8
	c-3.5,7.3,3.1,17.5,8.4,22.8c17.8,17.8,55.6,13.7,66.1-0.4c1.3-1.8,3.7-5.7,9.4-13.4c4-5.4,6.1-8.3,9.1-11.6
	c6.8-7.7,13.8-15.5,19.5-14.1c5.3,1.3,5,9.6,8.3,12.4c18.1,15.4,168.6-109,152.3-134.8c-12.2-19.3-114.1,21.4-167.1,23.1
	c-20.1,0.6-40.2,7.3-60.1,4.1c-1.7-0.3-4.8-0.8-5.9,0.7c-4.2,5.9,30.9,32,36.7,35.6c0.8,0.5,2.2,1.2,4,1.4c3.8,0.4,6.9-1.9,7.5-2.3
	c8.4-5.6,154.2-49.7,154.2-49.4c0.1,0.3-135.1,54.3-149.1,57c-1,0.2-5.7,0.9-9.8,4.5c-2.6,2.2-3.9,4.6-4.8,6.5
	c-8.8,17.6-7.4,41.7-7,47.7c0.2,2.4,0.4,5.4,2.5,6.6c4.3,2.6,13-4.4,15.4-6.3c16.8-13.2-34.6,35.3,103.9-66.9
	c0,0,72-53.1,105.9-83.1c0.1-0.1,1-0.9,2.4-2.1c0.9-0.8,1.5-1.3,1.6-1.3c2.6-2.2,36.1-51.2,58.6-68.1c25.6-19.2,60.8-14.8,70.4-13.6
	c24.6,3.1,29.1,12.4,47.5,10.4c6.1-0.7,23.2-3.6,53.7-36.5c37.1-40,50.9-77.6,55.8-75.7c3.4,1.4-4.7,18.9-5.2,47
	c-0.8,40.6,15.1,60,7.3,66.8c-13.2,11.4-71.3-32-67.8-38.6c3.4-6.6,62.4,36,96.5,13.6c27.5-18,34.1-75.1,17.2-87.1
	c-0.6-0.4-5.2-3.6-10.4-2.1c-22.7,6.7-27.6,95.3-0.5,108.5c6.3,3.1,15.8,2.7,21.4-2.1c6.8-5.8,8.3-18.4,2.6-25.6
	c-2.2-2.7-6.8-6.3-11.5-5.2c-5.6,1.3-9.2,8.6-8.3,14.1c1.5,10.2,19.2,18.6,32.3,15.1c15.7-4.1,25.2-25.1,24-26.1
	c-0.8-0.7-9.1,5.1-10.4,13c-1.2,6.9,2.9,16,10.4,18.8c9.9,3.6,20.1-5.8,23.5-14.1c3-7.4,2.3-17.8-3.1-21.4c-2.2-1.4-5.8-2.2-7.8-0.5
	c-2.5,2-1.4,6.8-1,8.3c1.9,8.2,10.4,17.1,17.7,16.2c11-1.4,17-24.8,17.7-24.5c0.7,0.3-9.8,18.8-3.1,28.2c1.4,1.9,4.3,4.7,8.3,5.2
	c4.1,0.6,7.4-1.5,8.3-2.1c11-6.9,9.7-31.3,9.9-31.3c0.2,0-5.4,29.7,1.6,32.9c7.6,3.5,32.2-23.2,39.1-55.3
	c3.1-14.5,3.1-32.6-0.5-33.4c-4-0.9-15,18.2-15.7,38.6c-0.9,29.6,20.3,50.4,19.3,51.1c-1.6,1.1-50.9-56.2-38.6-71.5
	c0.9-1.1,2.2-2.1,8.9-3.7c30-7.1,39.5,3.6,68.9,1c3.2-0.3,7.4-0.8,8.3,1c2,4-16.2,11.6-23,27.7c-5.4,12.6-3.8,30.8,5.7,40.2
	c16,15.8,50.7,2.7,68.3-8.9c0,0,30.6-20.1,40.2-82.4c0.3-1.6,1-6.2-1.6-9.9c-1.2-1.8-3.5-4-4.7-3.7c-7.4,1.9,6.1,106.5,19.3,106.4
	c4.2,0,5.4-10.8,13-31.3c18.4-49.5,47-82.3,49.6-80.9c2.3,1.2-17.6,26.6-17.7,64.7c-0.1,17.4,3.9,49.9,20.3,54.3
	c13,3.4,28-12.3,28.7-13c2.7-2.9,7-7.6,6.8-14.1c0-0.8-0.3-7.1-4.2-8.9c-4.2-1.9-10.7,2.6-13,7.8c-2.2,5-0.4,9.9,0.5,12.5
	c0,0,3.2,8.9,12,14.1c15.3,9,39.9-3.3,43.8-5.2c48.2-23.3,352.9-106.3,586.6-79.8"/>
</svg>
