<svg viewBox="0 0 1920 960" >
<path class="p4" d="M0,154.5c4.2,0.5,8.3,1,12.5,1.5c11.4,1.5,66.3,9,135,30.5c0,0,100.9,31.5,174.5,80.6l0,0
	c21.6,14.4,46.9,11.4,60.5,9.7c16.9-2.2,27.1-3.7,33.1-12.3c3.8-5.4,6.4-14.1,2.9-20.1c-3.9-6.7-14-7.3-21.4-7.8
	c-65-4.5-73.8-10.8-77.7-14.9c-7.2-7.3-10.5-18.9-8.3-28.2c5.9-26.2,54.4-34.8,85.8-31c5.1,0.6,36.5,4.4,41.2,20.3
	c1.5,5,0.2,10.7,1.3,11c2.3,0.4,7.4-25.1,9.9-24.8c5.1,0.6-2.9,107.3-1,107.5c0.4,0,0.8-5.3,3.7-14.1c2.7-8.5,4.9-15,10.7-19.6
	c2.2-1.7,7.2-5.7,12.3-3.9c3.9,1.4,6.4,5.8,6.5,9.7c0.2,7.2-7.8,11.8-9.1,12.5c-7.2,4.1-13.3,2-14.1,4.4c-0.8,2.5,4.9,7.5,11.2,9.4
	c11.3,3.4,21.9-4,22.4-4.4c14.5-10.5,16.1-33.4,15.4-33.7c-0.5-0.1-4.7,8.1-5,17.5c-0.2,8.2,2.6,20.5,8.9,22.4
	c11.2,3.5,29.6-27,33.4-33.4c5.4-9,27.9-46.4,14.3-74.1c-1.3-2.7-2.6-5.3-4.2-5.2c-9.5,0.8-18.3,107.5-1.6,111.9
	c16.1,4.3,65.4-82.6,44.9-106.7c-0.7-0.9-4.2-4.9-7.6-4.2c-15.8,3.4-16.9,106.3,2.9,111.1c13.1,3.2,29.5-38,30-43
	c0.1-0.7,0.3-2.7-0.8-3.4c-0.9-0.6-2.6-0.3-3.4,0.5c-1.8,1.9,1.1,7.2,7.3,19.6c6.1,12.1,7.2,15,6.5,18.8c-0.8,4.4-4,9.5-8.1,10.2
	c-6.7,1.1-13.5-9.7-13.6-9.7c0,0,2.8,4.7,8.3,7.6c9.2,4.7,19.1,1,22.4-0.3c20.1-7.6,28.5-36,29.5-39.1
	C687.1,188.5,883.1,102.7,950.4,88c279.3-61.2,544.8,440.1,899.2,502.4c19.5,3.4,43.4,6.3,70.4,5.6"/>
</svg>
