<svg viewBox="0 0 1920 960">
<path class="p5" d="M0,595.6c21.6-0.6,45-3.4,69.7-10.1C232,541.7,305.3,370.4,309.9,359.1c9.4-22.9,14.2-41.9,23.5-78.3
	c28-110,11.4-126.4,6.8-129.9c-1.8-1.4-8.8-6.7-15.7-4.7c-6.5,1.9-10,9.4-11,14.6c-1.8,9.4,3.2,19.3,9.4,24.5
	c17.4,14.6,58.6,4.3,66.8-19.3c4.1-11.8-1.4-23.1-2.1-24.5c-11.4-22.6-47.3-28.1-72.5-22.4c-5.3,1.2-46,11.1-56.3,49
	c-5.8,21.4-0.3,45.1,14.1,61c24.4,26.9,70,26.3,93.9,9.4c15.4-10.9,21.6-28.2,31.3-26.1c10.1,2.2,9.8,22.6,20.3,24
	c6.7,0.9,14.6-6.2,16.7-14.1c0.2-0.9,2.5-9.9-2.6-14.1c-4.7-3.8-12.9-1.3-17.2,2.6c-8,7.2-7.8,23.9,1,32.3c9.9,9.4,26.3,4.5,35-1.6
	c14.4-10.1,14.1-28.4,14.1-32.3c-0.1-7.4-2.3-18-5.7-18.3c-3.5-0.3-9.2,10.3-6.3,14.6c4.1,6.1,22-4.2,27.7,2.6
	c4.9,5.9-5.8,16.9-0.5,28.2c2.4,5.1,7.8,9.9,13,10.4c23.4,2.5,62.7-78.8,42.8-100.2c-2.9-3.1-6.7-4.4-8.9-5.2
	c-20.8-7.3-47.9,10.3-46.4,16.7c2.7,11.7,105.1,3.2,105.4-3.7c0.2-5.1-57-13.9-64.2,0c-0.4,0.9-1,2.3-1.8,4.6c0,0-3.5,9.9-5,20
	c-1.5,10.3-4.3,56.6,16.2,64.7c1.1,0.4,6,2.3,11.5,0.5c17.7-5.6,20.8-41.6,22.4-41.2c1.7,0.3-8.4,34.9,3.1,42.8
	c4.9,3.4,12.1,0.8,15.7-0.5c32.3-12,55.5-66.3,43.3-111.1c-2.5-9.3-4.9-18.1-8.9-18.3c-19.7-1-19.2,212.7-13,217
	c2.5,1.8,5.1,2.2,5.1,2.2s1.9,0.3,3.8-0.1c5.5-1.1,21.2-32,8.3-54.3c-7.4-12.8-19.6-14.6-18.8-21.9c0.8-7.1,12.4-4.8,24.5-17.7
	c0,0,10.3-11,17.6-36.2c0.1-0.2,0.2-0.8,0.2-0.8c0,0-0.2,0.4-0.3,0.6c-8.3,19-3.9,30.2-3.9,30.2c1.9,4.9,7.5,14.7,14.6,14.6
	c12-0.1,24.3-28.5,25.6-31.3c1.7-3.9,3.1-8,7.3-11c6.2-4.4,16.4-5.1,19.3-0.5c2.7,4.2-1.8,11.6-2.1,11.5c-0.3-0.1,4.8-9.2,1-15.1
	c-2.7-4.3-9.6-6.3-14.6-4.7c-12.6,4-20.3,33.3-9.4,44.3c9.5,9.7,29.9,1.8,42.8-3.1c20.3-7.8,41.1-23.4,38.6-29.7
	c-1.4-3.7-10.7-3.8-16.7-2.1c-8.8,2.5-16.2,10.7-16.7,20.3c-0.4,7.6,3.6,17.6,11,19.3c6,1.4,11.5-3.2,12.5-4.2
	c8.3-7.3,8-20.5,8.9-20.3c1,0.1-2.8,14,3.7,20.9c4.7,5,13,4.4,14.6,4.2c26.3-2.8,47.9-63.5,36-97.6c-1.1-3.3-2.9-7.2-6.8-9.9
	c-15.5-10.9-50.4,7.8-49,15.1c2.2,12.3,108.4,8.7,109,1.6c0.5-5.2-54.9-22.9-73.6-2.1c-6.7,7.5-6.5,17.7-6.3,30.8
	c0.2,9.7,1.1,54.8,27.1,62.1c17,4.8,36.8-8.9,44.3-23c1.8-3.3,6.2-11.4,2.6-16.7c-3.4-5.1-12.8-5.6-18.8-2.1
	c-8.3,4.9-7.9,16.4-7.8,18.8c0.3,9.5,6.1,21.4,17.2,24.5c12.1,3.4,22.5-6.1,25-8.3c8.3-7.5,10.8-17.1,12-21.4
	c7.9-27.4,27.7-55.2,45.9-67.3c0,0,17.5-11.9,49-10.4c39.7,1.8,474.4,275.3,706.5,264.8c57.1-2.6,134.3-23.8,224.8-105.7"/>
</svg>
