<svg viewBox="0 0 1920 960">
<path class="p6" d="M0,299.4c19.9-18,40.5-39,61.6-63.4c23.4-26.9,38.1-51.3,76.5-82.5c33.8-27.6,117.2-95.4,223.5-84.7
	C465,79.4,559.2,161.3,550.6,204c-1.8,9.2-7,8.9-14.1,27c-12.8,32.6-1.8,47.5-10.6,83.4c-4.7,19.3-9.6,39-25.8,48.1
	c-26.3,14.7-70.1-5-70.5-20c-0.5-17.9,60.9-41.7,112.7-48.1c30.2-3.7,46.7-0.3,62.2-14.1c16.7-14.9,24.1-42.5,16.4-63.4
	C607,178.3,544.7,170.6,506,177c-45.6,7.5-97.6,40.8-97.9,77.6c-0.1,11.2,4.6,19.5,5.7,21.4c35.4,60.2,223.5,20,224.8,30.1
	c0.3,2-7.5,2.9-14.1,11.7c-1.1,1.5-12,16.7-4.7,31.7c0.4,0.7,6.5,12.7,19.4,14.6c14.9,2.2,25.1-11,27.1-13.6
	c7.8-10,8.2-21.8,6.8-29.2c-0.6-3.3-2.8-15.3-10.4-17.2c-2.9-0.8-6.5,0-8.9,2.1c-6.5,5.7-4.2,22,4.2,31.3c6.7,7.4,18.6,12,28.2,8.9
	c24-7.7,23.1-59.7,27.1-59.5c7.8,0.5,17.2,195.1-18.3,201.5c-5.7,1-10.6-3.2-13-5.2c-36.2-30.7,34-144.3,46.5-164.4
	c4.4-7.1,10.8-15.9,18.8-15.7c5.5,0.2,9.5,4.6,11,6.3c10.2,11.5,9.2,34.7-3.1,44.9c-2.1,1.7-7.9,5.9-15.1,5.2
	c-9.6-0.9-16.4-10-15.7-11c1.1-1.5,18.4,19.9,36.5,17.7c29.2-3.4,47.4-66.1,47-66.3c-0.4-0.2-21.6,30.6-12,51.7
	c0.3,0.6,5.3,11.1,13.6,12c10.9,1.1,21.5-14.9,25.6-27.7c5.2-16.4,1.2-31.8,1.6-31.8c0.7-0.1,0,52.4,15.7,56.9
	c12.7,3.6,35.7-24.1,43.8-51.7c3.8-12.7,3.5-22.5,4.2-22.4c1.5,0.1-5.5,45.5-3.7,106c0.7,22.9-5.3,45.5-6.3,68.4
	c0,0-0.7,16.9-9.4,24.5c-0.1,0.1-0.2,0.1-0.2,0.1c-5.2,4.4-11.3,5.5-12.9,5.1c-7.1-1.7-3.5-53.2,12.5-115.9
	c1.4-5.4,9.6-36.3,32.9-60.8c5.6-5.9,11.2-10.6,17.2-9.7c10,1.6,16.9,18.4,15.7,32.1c-0.1,0.9-2,19.1-13,23
	c-11.2,3.9-25.6-9-25.3-9.7c0.3-0.7,17.7,7.3,31.1,14.4c0,0,2.4,1.3,4.6,2.5c52.1,29,67.5,75.8,67.5,75.8
	c15,45.8-2.3,105.6-29.7,113.5c-12.7,3.7-25.1-4.5-26.6-5.5c-16.3-11-22.1-35.9-16.7-52.5c11.3-34.5,75.2-44.4,117.7-39.4
	c18.3,2.1,76.5,8.9,102.8,57.9c13.4,24.9,21.5,66.1,0,95.8c-21.9,30.3-67.5,38.6-99.9,30.8c-30.6-7.4-89.6-38.9-109.3-41
	c-5.1-0.5-8.9,0.8-10.2,1.3c-6.2,2.5-12.4,8.6-13.3,16.2c-1,8.4,5,15.9,9.1,19.1c17.4,13.4,66.8,0.9,86.4-30.8
	c18.5-29.9-2.1-56.7,22.4-96.8c8.4-13.8,12.8-20.9,20.4-21.9c36.8-4.9,69.5,145.4,119.8,143.8c6.7-0.2,18.5-3.3,27.1-12
	c8.2-8.4,15.8-24.2,9.1-33.1c-3.5-4.6-10.3-6.8-15.9-5.5c-11.8,2.8-16.9,20.8-15.9,33.4c0.9,11.1,7.1,26.3,18.8,30
	c18,5.7,38-19.3,55.8-41.8c4.1-5.2,21.5-27.5,16.2-37.6c-0.4-0.7-1.5-2.9-3.7-3.4c-4.2-1-10.8,4.9-12.5,10.7
	c-4,13.1,17.5,21.4,19.1,43.6c0.1,1.4,1,16.5-7.3,21.7c-9.4,5.8-24.8-4.6-25.1-4.2c-0.2,0.5,20,18.4,38.4,13.6
	c29.2-7.7,38.5-68.7,40.2-68.1c0.8,0.3-4.2,12.5-3.7,27.9c0.5,14.1,5.6,35.8,16.4,38.4c8.9,2.1,13.3-10.6,35-26.6
	c26.3-19.4,47.9-21.5,47-27.7c-0.7-4.6-13.7-7.4-23.7-5.2c-14.3,3-22.7,15.8-25.1,26.6c-2,9-1.8,25.7,8.9,31.1
	c8.6,4.3,19.9-0.7,26.1-7c11.6-11.9,7.2-30.4,8.6-30.5c3.7-0.3,10.2,129.1-12.3,160.8c-2,2.8-7.1,10-14.9,10.7
	c-7.8,0.7-15.9-5.5-19.6-11.7c-13.3-22.4,16.8-69.3,38.4-91.1c4.3-4.3,15.8-15.3,29.2-32.7c5.7-7.5,9.7-13.5,10.8-15
	c18.6-27.9,23.6-47.5,26.9-46.7c5.6,1.3-4.6,59.3,2.3,61.1c6.9,1.7,20.4-53.7,44.4-54.5c1,0,6.2-0.2,10.4,3.1
	c14.4,11.4-2.5,47.6,4.4,51.4c6,3.3,22.9-22.2,37.6-36.8c58.9-58.6,150.6,0.9,248.4-46.5c9.7-4.7,30.3-15.6,62.2-27.8
	c12.7-4.8,23.8-8.6,34.2-11.8"/>
</svg>
