<?xml version="1.0" encoding="utf-8"?>
<!-- Generator: Adobe Illustrator 27.0.0, SVG Export Plug-In . SVG Version: 6.00 Build 0)  -->
<svg version="1.1" id="Layer_1" xmlns="http://www.w3.org/2000/svg" xmlns:xlink="http://www.w3.org/1999/xlink" x="0px" y="0px"
	 viewBox="0 0 1920 960" style="enable-background:new 0 0 1920 960;" xml:space="preserve">
<style type="text/css">
	.st0{fill:#FFFFFF;}
	.st1{fill:none;stroke:#231F20;stroke-width:4.9932;stroke-linecap:round;stroke-linejoin:round;stroke-miterlimit:10;}
</style>
<g>
	<rect x="13440.3" y="94.3" class="st0" width="68.8" height="43.4"/>
	<path d="M13508.7,94.8v42.4h-67.8V94.8H13508.7 M13509.7,93.8h-69.8v44.4h69.8V93.8L13509.7,93.8z"/>
</g>
<path class="st1" d="M0,490.4c18.7,30,54.1,77.7,114,115.1c74.5,46.6,204.3,88.1,299.5,37c127.4-68.4,71.3-237.6,216-338.1
	c7.2-5,104.8-70.8,216-51.7c212.5,36.6,206.5,337,389.7,380.3c201.1,47.5,375.5-274.8,591.7-201.9c45.4,15.3,76.7,42.7,93.1,59.1"/>
</svg>
