<svg viewBox="0 0 1920 960">
<path class="p7" d="M0,522.1c10.4-3.2,20.1-5.9,29.9-8.6c36.4-10,98.6-27,104-15.1c2.8,6.3-12.6,14.8-9.2,22.9
	c4.2,9.9,34,11.7,45.2-0.7c1.3-1.4,2.2-2.9,3-4.2c6.3-10.1,4-16.8,6.4-24.2c5.2-16.5,30.2-26.1,30.5-33.3c0-0.8-0.2-1.5-0.2-1.5
	c-1.2-4.4-8.7-5.8-9.6-6c-0.1,0-0.1,0-0.1,0c-4.6-0.8-17.1,3.8-23.7,13.4c-10.7,15.5-2.8,39.5,2.1,39.9c3.8,0.3,4.3-13.3,16.7-20.3
	c5.4-3.1,7.8-1.9,11.8-4.9c9-6.8,8.6-21.3,8.7-24.5c0.7-30.1,65.8-83,98.5-115.4c50.5-50.1,83.1-110.6,78-115.1
	c-6.6-5.8-70.4,87.5-145.6,154.9c0,0-37,33.1-29.1,48.4c3.1,6.1,12,6.6,13.4,14c1.4,6.8-4,16.6-12.1,17.7
	c-11.1,1.5-17.4-14.9-16.8-16.9c0.1-0.2,0.1-0.3,0.1-0.3c0.7-1.7,2.1-2.6,2.5-2.9c1.9-1.3,4.7-4.2,5.9-6.7c0.2-0.5,0.9-1.9,2.4-2.7
	c0,0,0.3-0.1,0.5-0.2c2.6-1,14.6,12.5,23,11.6c3.7-0.4,6.2-3.5,7.7-5.4c26.8-33.7,56.3-65.2,82.3-99.5c12.1-15.9,43-55.5,52.7-74.5
	c0.4-0.8,3.5-6.9,7.8-15.1c5.8-10.9,10.7-19.7,11.6-21.2c11.2-19.2,47.4-30,68.7-35.6c45.9-12.1,70.2-13.8,70.2-13.8
	c230.4-16.6,277.8-30.4,381.1-9.8c83.6,16.7,150.4,31,184.2,88.8c3.7,6.3,35.2,62.1,14.1,117.4c-31.1,81.4-136.4,57.2-211.2,150.2
	c-38.7,48.1-70.3,128.9-42.2,187.8c32.3,67.8,141.2,101,230,84.5c192.8-35.8,193.3-287.7,455.4-389.6c48.2-18.7,98-38.1,164.3-32.9
	c91.4,7.2,153,56.4,207.2,110.7"/>
</svg>
