<svg viewBox="0 0 1920 960">
<path class="p8" d="M0,478.2c73,73.1,132.8,155.3,234.3,157c131.7,2.2,238.4-133.1,263.1-164.5c106.8-135.4,62.2-241.5,150.4-296
	c94.5-58.5,276.3-17.4,347.7,89.3c111.2,166.1-92.2,421.1,9.4,507.5c60.4,51.4,184.3,5.4,211.5-4.7
	c81.8-30.4,105.1-76.4,211.5-150.4c36.5-25.4,95.3-61.5,171.9-96.6c11-5.1,10.4-4.6,23.8-10.7c116-53.3,148.8-83.6,156.4-109.6
	c1.5-5.2,5.8-19.9,0.7-23.3c-3.1-2.1-9.9-0.2-10.8,3c-0.6,2.1,1.3,5.3,3.2,5.4c4.2,0.3,13-14,7.9-23.1c-5.4-9.7-23.9-8.8-26.8-3.3
	c-2.2,4.1,3.4,12.9,10.4,15.8c13.7,5.8,32.4-11,30.6-16.7c-2.3-7.5-40,0.3-41.8-7.4c-0.5-2.1,1.8-4.7,3.9-6
	c9.5-5.7,23.4,11.4,34.2,5.6c2.3-1.2,4.8-3.6,4.3-5.3c-1.5-5.8-35.8,3.5-41.4-7.6c-1.2-2.3-1.3-5.7,0.4-7.7
	c7.1-8.5,41.8,12.6,44.9,7.6c1.1-1.7-1.7-5.8-4.9-8.5c-14.2-12.3-40.5,0.2-43.2-5.9c-1-2.3,1.7-6.8,5.5-9
	c13.9-8.1,37.4,17.9,46.9,10.5c4.1-3.2,6.2-12.8,7.6-19.4c0.4-1.8,0.7-3.7,0.7-3.7c0.6-3.7,0.9-6.5,0.9-6.8
	c0.8-9,16.1-27.7,16.1-27.7c10.7-13.1,15.6-35,10.3-50.8c-6.8-20.1-29.9-29.9-45.8-32.3c-18.1-2.7-44.6,1.6-58.5,22.4
	c-16.4,24.5-5.5,57.2,4.1,67.5c1.6,1.7,4.4,4.2,6.8,8.8c5.5,10.6,2.2,19.8,6.4,21.8c2.8,1.3,4.7-2.5,10.3-3.1
	c10.2-1.1,16.2,10.4,20.3,8.5c5.8-2.7-0.7-28.7-1-29.9c-4.5-17.8-10.8-25.8-6.8-30.9c2.6-3.2,8.5-4.2,10.3-2.3
	c1.8,1.9,0.3,7.1-2.8,9.8c-3.5,3.1-6.9,1.4-9.4,3.1c-7.8,5.2-4.1,40.4,18.7,54.7c2.9,1.8,11.8,7.4,23.6,6.3
	c22.7-2.1,28.9-26.5,55.6-46c10.1-7.4,25.5-15.9,48.7-20"/>
</svg>
