<svg viewBox="0 0 1920 960">
<path class="p9" d="M0,255.8c72.5-23.9,404.7-132.4,529.1-142.4c19.7-1.6,80.7-6.5,93.9,20.3c6.1,12.4,0.7,29.1-0.8,33.7
	c-6.5,19.9-19.4,20.6-36.4,48.1c-31.4,50.9-20.4,62.3-44.6,95.1c-9.1,12.3-34.9,47.1-76.3,51.7c-6.1,0.7-39.1,4.3-56.4-15.7
	c-22.5-26.1-4.5-76.7,15.7-104.9c40.7-57,116.2-58.2,143.2-58.7c24-0.4,72.2-1.2,86.1,26.6c6.8,13.6,4.7,32.6-4.7,45.4
	c-26.2,35.7-108.6,23.3-108.8,19.6c-0.2-3.3,63.1-20.3,101,7.8c13.7,10.2,28.6,29.7,24.3,47.7c-5.7,23.4-40.5,30.7-50.9,32.9
	c-35.3,7.4-71.6-4.4-71.2-11c0.9-14.8,190.7-7,193.3-32.9c0.4-3.9-3.5-8.7-7-11c-9.4-5.8-26.5,0.4-35.2,11.7
	c-6.2,8.1-11.4,23-3.9,32.9c3.9,5.1,11.5,9.3,18.8,7.8c17.5-3.7,23.9-39.1,26.6-38.4c2.2,0.6-7,23.2,2.3,32.9
	c5.4,5.6,15.9,5.7,23.5,3.1c26.8-9.3,30.2-58.7,35.2-57.9c5.5,0.9-2.6,60.8,7,63.4c10,2.7,31.6-58.5,43-55.6
	c9.9,2.5,1.1,50.4,12.5,54c14.3,4.5,44.9-65.8,55.6-61.8c9.3,3.4-5.7,60,2.3,62.6c8.7,2.9,33.9-60.4,45.4-57.1
	c9.3,2.7-4.6,45.2,13.3,57.1c17.3,11.5,54-12.2,65-31.3c2-3.5,6.4-11.2,3.9-19.2c-0.3-0.9-2.2-7.2-7.4-9c-6.9-2.4-15.1,4.6-18.8,9.8
	c-6.7,9.3-6.1,22.1-2,31.3c5.4,12.1,18.2,20.8,30.5,20.7c23.2-0.1,37.7-31.2,41.1-50.9c2.1-12.4,1.5-30.4-4.3-32.1
	c-6-1.7-18.1,13.7-14.9,20c3.9,7.5,26.5-5,37.2,5.1c12.9,12.2-6.4,42.8,6.3,52.8c8.3,6.6,23.8-0.8,24.7-1.2
	c11.4-5.5,15.3-15.9,16-18c4.3-12.2,7.7-16.4,12.9-18c5.8-1.7,12,3.1,14.1,4.7c16.5,12.9,27.3,58.9,10.2,81.4
	c-32.1,42.3-139.2-28.7-184.3,16.4c-36.8,36.8-3.3,121.8-34.4,133.2c-11.7,4.3-25.1-4.5-26.6-5.5c-16.2-10.9-22.1-35.8-16.7-52.4
	c11.3-34.5,75.2-44.4,117.7-39.4c18.3,2.1,76.4,8.9,102.8,57.9c13.4,24.9,21.5,66.1,0,95.7c-21.9,30.3-67.5,38.6-99.9,30.8
	c-30.6-7.4-89.6-38.9-109.3-41c-5.1-0.5-8.9,0.8-10.2,1.3c-6.2,2.5-12.4,8.6-13.3,16.2c-1,8.4,5,15.9,9.1,19
	c17.4,13.4,66.8,0.9,86.4-30.8c18.4-29.9-2.1-56.7,22.4-96.8c8.4-13.8,12.8-20.9,20.4-21.9c36.8-4.9,69.5,145.4,119.8,143.8
	c6.7-0.2,18.5-3.3,27.1-12c8.2-8.4,15.8-24.2,9.1-33.1c-3.5-4.6-10.3-6.8-15.9-5.5c-11.8,2.8-16.9,20.8-15.9,33.4
	c0.9,11.1,7.1,26.3,18.8,30c18,5.7,37.9-19.3,55.8-41.7c4.1-5.2,21.5-27.5,16.2-37.6c-0.4-0.7-1.5-2.9-3.7-3.4
	c-4.2-1-10.7,4.9-12.5,10.7c-4,13.1,17.5,21.4,19,43.6c0.1,1.4,1,16.5-7.3,21.7c-9.4,5.8-24.8-4.6-25-4.2
	c-0.2,0.5,20,18.4,38.4,13.6c29.2-7.7,38.5-68.6,40.2-68.1c0.8,0.3-4.2,12.5-3.7,27.9c0.5,14.1,5.6,35.8,16.4,38.4
	c8.9,2.1,13.3-10.6,35-26.6c26.3-19.4,47.9-21.5,47-27.7c-0.7-4.6-13.6-7.4-23.7-5.2c-14.3,3-22.7,15.8-25,26.6
	c-2,9-1.8,25.7,8.9,31c8.6,4.3,19.9-0.7,26.1-7c11.6-11.9,7.2-30.4,8.6-30.5c3.7-0.3,10.2,129.1-12.3,160.7c-2,2.8-7.1,10-14.9,10.7
	c-7.9,0.7-16-5.8-19.6-11.7c-14.2-23.7,23.9-72.6,38.4-91.1c19.2-24.7,25-24.4,39.9-47.7c16.7-26.1,22.9-47.7,26.9-46.7
	c6.4,1.7-4.1,59.5,2.3,61c6.6,1.6,37.1-54.2,44.4-54.5c0.3,0,0.6,0,0.6,0s5,0,9.9,3.1c6.9,4.5-2.6,47.5,4.4,51.4
	c5.5,3,16.1-22.8,37.6-36.8c34.1-22.2,70.5,1.4,133.6,4.1c0,0,51.9,2.2,104.5-15.3c51-16.9,88.8-56.9,116.4-101.2"/>
</svg>
