<?xml version="1.0" encoding="UTF-8"?>
<svg id="Layer_2" data-name="Layer 2" xmlns="http://www.w3.org/2000/svg" viewBox="0 0 105.73 105.73">
  <defs>
    <style>
      .cls-1 {
        fill: none;
        stroke: #ff543a;
        stroke-miterlimit: 10;
        stroke-width: 2.27px;
      }

      .cls-2 {
        fill: #ff543a;
      }
    </style>
  </defs>
  <g id="Layer_1-2" data-name="Layer 1">
    <g>
      <rect class="cls-1" x="1.14" y="1.14" width="103.46" height="103.46"/>
      <rect class="cls-1" x="9.44" y="9.73" width="86.56" height="86.56"/>
      <path class="cls-2" d="M58.64,77.75l2.35-3.14c2.46,1.99,5.02,3.34,8.41,3.34,3.76,0,5.59-1.99,5.59-4.44,0-2.93-3.34-4.18-6.48-5.38-3.97-1.46-8.31-3.4-8.31-8.21,0-4.49,3.66-8.05,9.82-8.05,3.5,0,6.59,1.46,8.78,3.19l-2.3,3.08c-1.93-1.46-3.92-2.51-6.43-2.51-3.61,0-5.28,1.88-5.28,4.08,0,2.72,2.93,3.71,6.11,4.91,4.13,1.57,8.68,3.24,8.68,8.62,0,4.6-3.66,8.41-10.35,8.41-4.02,0-7.89-1.67-10.61-3.92Z"/>
      <path class="cls-2" d="M27.19,24.75h16.11c12.58,0,21.02,4.3,21.02,16.57s-8.36,17.41-20.71,17.41h-9.28v22.32h-7.13V24.75Zm15.5,28.23c9.9,0,14.58-3.6,14.58-11.66s-4.99-10.74-14.88-10.74h-8.05v22.4h8.36Z"/>
    </g>
  </g>
</svg>