<?xml version="1.0" encoding="UTF-8"?>
<svg id="_레이어_2" data-name="레이어 2" xmlns="http://www.w3.org/2000/svg" viewBox="0 0 146.34 108.1">
  <defs>
    <style>
      .cls-1 {
        stroke: #ff543a;
        stroke-miterlimit: 10;
        stroke-width: 2.27px;
      }

      .cls-1, .cls-2 {
        fill: none;
      }

      .cls-2, .cls-3 {
        stroke-width: 0px;
      }

      .cls-3 {
        fill: #f55336;
      }
    </style>
  </defs>
  <g id="Layer_1" data-name="Layer 1">
    <g>
      <g>
        <path class="cls-1" d="m145.21,1.14H1.14v18.19h144.07V1.14Zm-25.53,11.26c-1.25,0-2.26-1.01-2.26-2.26s1.01-2.26,2.26-2.26,2.26,1.01,2.26,2.26-1.01,2.26-2.26,2.26Zm8.37,0c-1.25,0-2.26-1.01-2.26-2.26s1.01-2.26,2.26-2.26,2.26,1.01,2.26,2.26-1.01,2.26-2.26,2.26Zm8.37,0c-1.25,0-2.26-1.01-2.26-2.26s1.01-2.26,2.26-2.26,2.26,1.01,2.26,2.26-1.01,2.26-2.26,2.26Z"/>
        <rect class="cls-1" x="1.14" y="19.32" width="144.07" height="87.64"/>
        <circle class="cls-2" cx="119.68" cy="10.14" r="2.26"/>
        <circle class="cls-2" cx="128.05" cy="10.14" r="2.26"/>
        <circle class="cls-2" cx="136.43" cy="10.14" r="2.26"/>
      </g>
      <path class="cls-3" d="m113.51,70.25c2.83.83,5.57,1.13,8.42,1.03v7.24c-7.84.57-17.72-5.68-22.65-14.68,2.33,1.27,4.47,2.44,6.56,3.57,2.56-1.82,4.18-7.62,1.49-12.22-2.69-4.6-8.44-6.51-13.28-4.34-5.01,2.24-7.48,7.92-5.69,13.09,1.94,5.62,7.11,7.99,14.05,6.29,0,.59,0,1.14,0,1.68,0,1.59,0,3.19,0,4.78,0,1.14-.08,1.25-1.21,1.41-5.61.81-10.69-.48-14.89-4.31-5.62-5.12-7.29-11.49-5.37-18.82.08-.31.18-.63.26-.94.02-.07-.01-.16-.03-.32h-7.9c-.03.08-.11.18-.09.22,1.05,1.8,1.19,3.76,1.18,5.8-.05,5.68-.02,11.35-.02,17.03,0,.48,0,.97,0,1.55h-8.35c0-.48,0-.95,0-1.42,0-6.37,0-12.74,0-19.12,0-1.27-.32-2.41-1.1-3.42-.4-.52-.88-.78-1.56-.77-2.9.03-5.8-.01-8.7.04-.49,0-1.01.25-1.46.49-.53.29-1,.69-1.6,1.11-.34-.41-.65-.77-.96-1.13-4.28-4.93-12.33-4.76-16.37.34-4.36,5.51-1.33,13.63,5.65,15.17,2.88.63,5.6.27,8.11-1.33.97-.62,1.24-1.44.93-2.52-.19-.67-.66-.85-1.3-.85-1.79.02-3.58,0-5.5,0,.46-2.61-1.12-4.52-2.16-6.75.47-.05.81-.11,1.16-.11,2.98,0,5.96-.08,8.94.04,1.15.04,2.35.34,3.41.8,1.97.85,2.98,2.42,2.96,4.64-.04,4.53,0,9.07-.01,13.6,0,.36-.04.73-.06,1.2h-6.98c-.06-.71-.13-1.46-.2-2.22-1.45.41-2.83.9-4.25,1.19-9.49,1.93-18.89-4.64-20.34-14.18-1.62-10.66,6.82-20.12,17.64-19.76,2.44.08,4.76.63,6.98,1.63.5.23,1.09.36,1.64.36,12.09.02,24.17.02,36.26,0,.5,0,1.08-.1,1.5-.35,6.64-4.11,13.33-3.82,19.75.23,8.09,5.11,10.46,15.63,5.71,23.95-.18.31-.34.63-.59,1.09Z"/>
    </g>
  </g>
</svg>