<?xml version="1.0" encoding="utf-8"?>
<!-- Generator: Adobe Illustrator 27.0.0, SVG Export Plug-In . SVG Version: 6.00 Build 0)  -->
<svg version="1.1" id="Layer_1" xmlns="http://www.w3.org/2000/svg" xmlns:xlink="http://www.w3.org/1999/xlink" x="0px" y="0px"
	 viewBox="0 0 1920 960" style="enable-background:new 0 0 1920 960;" xml:space="preserve">
<style type="text/css">
	.st0{fill:none;stroke:#000000;stroke-width:13;stroke-linecap:round;stroke-linejoin:round;stroke-miterlimit:10;}
</style>
<path class="st0" d="M670.2,425.8c-0.7-28.2-16.4-51.9-41.5-64.9c-37.4-19.3-89.2-21.5-130.5-16.1c-29.7,3.8-59.2,14.2-82.5,33.5
	c-22.8,18.9-46.1,52-34.6,83c4.4,11.9,13.7,21.3,23.8,29c21.8,16.4,48.1,26.1,74.9,30.8c45.4,7.9,97.2-9.6,137,20.9
	c5.6,4.3,10.4,10.5,11,17.5c0.3,4-0.6,7.9-2.2,11.6c-12.4,29.5-50.2,46.4-78.8,54.3c-65,18.1-125.4-16.1-124.4-20
	c1.4-5.4,123.4,53.6,224.2,0c33.9-18,75-53.9,69.3-65.7c-3.6-7.4-26-6.9-38.7,3.5c-21.9,18-17.1,67.7,9.4,83.3
	c25.9,15.3,60.2-9.3,66.9-14.1c25.8-18.4,37.8-48.1,37.6-72.8c0-3.9-0.2-28.7-10.6-31.7c-8.9-2.6-23.3,11.4-21.1,18.8
	c3.1,10.5,37.2-1.2,49.3,15.3c12.2,16.6-12.5,42.2,1.2,63.4c8.9,13.8,27.3,15.2,28.2,15.3c32.5,2,52.4-46.8,63.4-70.5
	c-5.4,8.5-11.6,16.6-15.5,25.8c-4,9.2-5.5,20.1-1.4,29.2c3.4,7.6,10.3,13.2,18.1,16.2c6.9,2.7,14.6,3.6,21.8,2
	c7.6-1.7,14.4-6.1,19.8-11.7c16.5-16.9,21-47.7,4.7-66.2c-2.4-2.7-5.7-5.2-9.2-4.5c-2.6,0.5-4.5,2.8-5.8,5.1
	c-4.8,8.4-4.2,19.1-0.6,28.1c9.1,22.3,32,21.6,50.5,11.3c35.9-20.1,57.7-59.3,67.6-99.3c6.3-25.8,8.5-52.6,6.3-79.1
	c-1.1-13.2-3.3-26.6-9-38.6c-1-2.2-2.3-4.6-4.6-5.6c-4.9-2.4-10.1,2.7-13.1,7.2c-27.6,42.3-39,94.1-36.2,144.5
	c1.5,26.7,7,53.4,18.6,77.5c7.9,16.4,22.8,34.9,43.1,28.3c15.4-5,27.6-19.2,37-31.7c28-37.3,45.7-85.1,50.9-131.3
	c5-44.2-2.3-97-15.3-98.6c-12.8-1.6-31.2,46.8-38.7,85.7c-15.1,78,2.8,173.6,36.4,179.6c12.1,2.2,30.8-6.5,59.9-54
	c7.9-13,7.7-13.1,18.3-28.6c24.4-35.6,37.6-54.8,60.9-62.1c20-6.2,44.2-2.4,61.2,9.8c17.1,12.3,27.1,31.9,41.5,46.9
	c16.5,17.1,30,30.7,51.8,36.1c15.5,3.8,28.6,1.9,34.6,1c4.7-0.7,24.1-4.1,44.9-19.5c20.2-15,20.5-25.5,37.6-44.4
	c2.4-2.6,28.3-30.7,64.9-42.4c48.3-15.4,84.9,7.4,90.8-4.7c5.7-11.6-23.4-42.2-34.4-37.6c-4.9,2.1-5.4,11.3-6.3,29.7
	c-1.2,23.5-2.1,43.5,6.3,47c10.3,4.3,28.7-18.6,31.3-21.9"/>
</svg>
