<?xml version="1.0" encoding="UTF-8"?>
<svg id="Layer_2" data-name="Layer 2" xmlns="http://www.w3.org/2000/svg" viewBox="0 0 834.91 4.17">
  <defs>
    <style>
      .cls-1 {
        fill: #fff;
      }

      .cls-2 {
        opacity: .5;
      }
    </style>
  </defs>
  <g id="Layer_1-2" data-name="Layer 1">
    <g class="cls-2">
      <circle class="cls-1" cx="2.09" cy="2.09" r="2.09"/>
      <circle class="cls-1" cx="12.74" cy="2.09" r="2.09"/>
      <circle class="cls-1" cx="23.39" cy="2.09" r="2.09"/>
      <circle class="cls-1" cx="34.04" cy="2.09" r="2.09"/>
      <circle class="cls-1" cx="44.69" cy="2.09" r="2.09"/>
      <circle class="cls-1" cx="55.34" cy="2.09" r="2.09"/>
      <circle class="cls-1" cx="65.99" cy="2.09" r="2.09"/>
      <circle class="cls-1" cx="76.64" cy="2.09" r="2.09"/>
      <circle class="cls-1" cx="87.29" cy="2.09" r="2.09"/>
      <circle class="cls-1" cx="97.94" cy="2.09" r="2.09"/>
      <circle class="cls-1" cx="108.59" cy="2.09" r="2.09"/>
      <circle class="cls-1" cx="119.24" cy="2.09" r="2.09"/>
      <circle class="cls-1" cx="129.89" cy="2.09" r="2.09"/>
      <circle class="cls-1" cx="140.54" cy="2.09" r="2.09"/>
      <circle class="cls-1" cx="151.19" cy="2.09" r="2.09"/>
      <circle class="cls-1" cx="161.84" cy="2.09" r="2.09"/>
      <circle class="cls-1" cx="172.5" cy="2.09" r="2.09"/>
      <circle class="cls-1" cx="183.15" cy="2.09" r="2.09"/>
      <circle class="cls-1" cx="193.8" cy="2.09" r="2.09"/>
      <circle class="cls-1" cx="204.45" cy="2.09" r="2.09"/>
      <circle class="cls-1" cx="215.1" cy="2.09" r="2.09"/>
      <circle class="cls-1" cx="225.75" cy="2.09" r="2.09"/>
      <circle class="cls-1" cx="236.4" cy="2.09" r="2.09"/>
      <circle class="cls-1" cx="247.05" cy="2.09" r="2.09"/>
      <circle class="cls-1" cx="257.7" cy="2.09" r="2.09"/>
      <circle class="cls-1" cx="268.35" cy="2.09" r="2.09"/>
      <circle class="cls-1" cx="279" cy="2.09" r="2.09"/>
      <circle class="cls-1" cx="289.65" cy="2.09" r="2.09"/>
      <circle class="cls-1" cx="300.3" cy="2.09" r="2.09"/>
      <circle class="cls-1" cx="310.95" cy="2.09" r="2.09"/>
      <circle class="cls-1" cx="321.6" cy="2.09" r="2.09"/>
      <circle class="cls-1" cx="332.25" cy="2.09" r="2.09"/>
      <circle class="cls-1" cx="342.9" cy="2.09" r="2.09"/>
      <circle class="cls-1" cx="353.55" cy="2.09" r="2.09"/>
      <circle class="cls-1" cx="364.2" cy="2.09" r="2.09"/>
      <circle class="cls-1" cx="374.85" cy="2.09" r="2.09"/>
      <circle class="cls-1" cx="385.51" cy="2.09" r="2.09"/>
      <circle class="cls-1" cx="396.16" cy="2.09" r="2.09"/>
      <circle class="cls-1" cx="406.81" cy="2.09" r="2.09"/>
      <circle class="cls-1" cx="417.46" cy="2.09" r="2.09"/>
      <circle class="cls-1" cx="428.11" cy="2.09" r="2.09"/>
      <circle class="cls-1" cx="438.76" cy="2.09" r="2.09"/>
      <circle class="cls-1" cx="449.41" cy="2.09" r="2.09"/>
      <circle class="cls-1" cx="460.06" cy="2.09" r="2.09"/>
      <circle class="cls-1" cx="470.71" cy="2.09" r="2.09"/>
      <circle class="cls-1" cx="481.36" cy="2.09" r="2.09"/>
      <circle class="cls-1" cx="492.01" cy="2.09" r="2.09"/>
      <circle class="cls-1" cx="502.66" cy="2.09" r="2.09"/>
      <circle class="cls-1" cx="513.31" cy="2.09" r="2.09"/>
      <circle class="cls-1" cx="523.96" cy="2.09" r="2.09"/>
      <circle class="cls-1" cx="534.61" cy="2.09" r="2.09"/>
      <circle class="cls-1" cx="545.26" cy="2.09" r="2.09"/>
      <circle class="cls-1" cx="555.91" cy="2.09" r="2.09"/>
      <circle class="cls-1" cx="566.56" cy="2.09" r="2.09"/>
      <circle class="cls-1" cx="577.21" cy="2.09" r="2.09"/>
      <circle class="cls-1" cx="587.86" cy="2.09" r="2.09"/>
      <circle class="cls-1" cx="598.52" cy="2.09" r="2.09"/>
      <circle class="cls-1" cx="609.17" cy="2.09" r="2.09"/>
      <circle class="cls-1" cx="619.82" cy="2.09" r="2.09"/>
      <circle class="cls-1" cx="630.47" cy="2.09" r="2.09"/>
      <circle class="cls-1" cx="641.12" cy="2.09" r="2.09"/>
      <circle class="cls-1" cx="651.77" cy="2.09" r="2.09"/>
      <circle class="cls-1" cx="662.42" cy="2.09" r="2.09"/>
      <circle class="cls-1" cx="673.07" cy="2.09" r="2.09"/>
      <circle class="cls-1" cx="683.72" cy="2.09" r="2.09"/>
      <circle class="cls-1" cx="694.37" cy="2.09" r="2.09"/>
      <circle class="cls-1" cx="705.02" cy="2.09" r="2.09"/>
      <circle class="cls-1" cx="715.67" cy="2.09" r="2.09"/>
      <circle class="cls-1" cx="726.32" cy="2.09" r="2.09"/>
      <circle class="cls-1" cx="736.97" cy="2.09" r="2.09"/>
      <circle class="cls-1" cx="747.62" cy="2.09" r="2.09"/>
      <circle class="cls-1" cx="758.27" cy="2.09" r="2.09"/>
      <circle class="cls-1" cx="768.92" cy="2.09" r="2.09"/>
      <circle class="cls-1" cx="779.57" cy="2.09" r="2.09"/>
      <circle class="cls-1" cx="790.22" cy="2.09" r="2.09"/>
      <circle class="cls-1" cx="800.87" cy="2.09" r="2.09"/>
      <circle class="cls-1" cx="811.53" cy="2.09" r="2.09"/>
      <circle class="cls-1" cx="822.18" cy="2.09" r="2.09"/>
      <circle class="cls-1" cx="832.83" cy="2.09" r="2.09"/>
    </g>
  </g>
</svg>