<?xml version="1.0" encoding="utf-8"?>
<!-- Generator: Adobe Illustrator 27.0.0, SVG Export Plug-In . SVG Version: 6.00 Build 0)  -->
<svg version="1.1" id="Isolation_Mode" xmlns="http://www.w3.org/2000/svg" xmlns:xlink="http://www.w3.org/1999/xlink" x="0px"
	 y="0px" viewBox="0 0 400 20.9" style="enable-background:new 0 0 400 20.9;" xml:space="preserve">
<style type="text/css">
	.st0{fill:none;stroke:#34A853;stroke-width:3.0898;stroke-linecap:round;stroke-linejoin:round;stroke-miterlimit:10;}
</style>
<g>
	<path class="st0" d="M387.9,7c-9.9,5.1-25.3,11.2-43.4,9.4c-18.6-1.9-21.9-10.3-40-12.3c-24.6-2.8-28.1,11.5-56.6,12.3
		c-25.8,0.8-27.3-10.8-54.1-9.8c-25.5,1-27,11.7-49.8,10.6C120,16.1,117.8,4,96.3,5.3C77.3,6.4,73,16.2,54.2,16.8
		C38.8,17.3,26,11.3,17.5,6.1"/>
	<path class="st0" d="M387.9,7c-9.9,5.1-25.3,11.2-43.4,9.4c-18.6-1.9-21.9-10.3-40-12.3c-24.6-2.8-28.1,11.5-56.6,12.3
		c-25.8,0.8-27.3-10.8-54.1-9.8c-25.5,1-27,11.7-49.8,10.6C120,16.1,117.8,4,96.3,5.3C77.3,6.4,73,16.2,54.2,16.8
		C38.8,17.3,26,11.3,17.5,6.1"/>
</g>
</svg>
