<?xml version="1.0" encoding="UTF-8"?>
<svg id="Layer_2" data-name="Layer 2" xmlns="http://www.w3.org/2000/svg" viewBox="0 0 146.34 108.1">
  <defs>
    <style>
      .cls-1 {
        stroke: #ff543a;
        stroke-miterlimit: 10;
        stroke-width: 2.27px;
      }

      .cls-1, .cls-2 {
        fill: none;
      }

      .cls-3 {
        fill: #ff543a;
      }
    </style>
  </defs>
  <g id="Layer_1-2" data-name="Layer 1">
    <g>
      <g>
        <path class="cls-1" d="M145.21,1.14H1.14V19.32H145.21V1.14Zm-25.53,11.26c-1.25,0-2.26-1.01-2.26-2.26s1.01-2.26,2.26-2.26,2.26,1.01,2.26,2.26-1.01,2.26-2.26,2.26Zm8.37,0c-1.25,0-2.26-1.01-2.26-2.26s1.01-2.26,2.26-2.26,2.26,1.01,2.26,2.26-1.01,2.26-2.26,2.26Zm8.37,0c-1.25,0-2.26-1.01-2.26-2.26s1.01-2.26,2.26-2.26,2.26,1.01,2.26,2.26-1.01,2.26-2.26,2.26Z"/>
        <rect class="cls-1" x="1.14" y="19.32" width="144.07" height="87.64"/>
        <circle class="cls-2" cx="119.68" cy="10.14" r="2.26"/>
        <circle class="cls-2" cx="128.05" cy="10.14" r="2.26"/>
        <circle class="cls-2" cx="136.43" cy="10.14" r="2.26"/>
      </g>
      <g>
        <path class="cls-3" d="M32.41,62.27l13.01,14.65-1.78,2.13-14.83-16.78,14.83-16.82,1.78,2.22-13.01,14.6Z"/>
        <path class="cls-3" d="M78.89,43.58l-12.12,37.42h-2.22l12.21-37.42h2.13Z"/>
        <path class="cls-3" d="M98.28,47.66l1.73-2.22,14.83,16.82-14.83,16.78-1.73-2.13,12.92-14.65-12.92-14.6Z"/>
      </g>
    </g>
  </g>
</svg>